<svg width="258" height="118" viewBox="0 0 258 118" fill="none" xmlns="http://www.w3.org/2000/svg">
<path d="M48.3111 3.34082V20.7166H49.8693V3.34082H48.3111ZM208.129 3.34082V20.7166H209.687V3.34082H208.129ZM3.34424 58.6108V60.1867H14.9308V58.6108H3.34424ZM243.069 58.6108V60.1867H254.656V58.6108H243.069ZM48.3111 97.2832V114.659H49.8693V97.2832H48.3111ZM208.129 97.2832V114.659H209.687V97.2832H208.129Z" fill="#010101"/>
<path d="M49.3518 51.0103C47.9334 51.0103 46.6947 51.5488 45.6958 52.5263C44.0977 54.0823 43.9578 56.257 43.9578 58.3516C43.9578 60.4463 44.0977 62.6206 45.6958 64.1766C46.6947 65.1541 47.9334 65.693 49.3518 65.693C52.1087 65.693 54.3259 63.6581 54.4458 60.9051H52.6081C52.5681 62.7205 51.1498 64.0172 49.3518 64.0172C48.3929 64.0172 47.6136 63.618 46.9543 62.9397C45.7957 61.7428 45.7959 59.9077 45.7959 58.3516C45.7959 56.7956 45.7957 54.9601 46.9543 53.7632C47.6136 53.0849 48.3929 52.686 49.3518 52.686C50.3307 52.686 51.1696 53.0649 51.749 53.7033C52.1884 54.1621 52.528 54.9202 52.568 55.6982H54.4259C54.3061 52.9253 52.0887 51.0103 49.3518 51.0103ZM168.953 51.0103C167.535 51.0103 166.277 51.549 165.258 52.5465C163.719 54.0427 163.54 56.0974 163.54 58.3516C163.54 60.6059 163.719 62.6606 165.258 64.1568C166.277 65.1542 167.535 65.693 168.953 65.693C170.372 65.693 171.631 65.1542 172.649 64.1568C174.188 62.6606 174.367 60.6059 174.367 58.3516C174.367 56.0974 174.188 54.0427 172.649 52.5465C171.631 51.549 170.372 51.0103 168.953 51.0103ZM208.908 51.0103C207.489 51.0103 206.231 51.549 205.212 52.5465C203.674 54.0427 203.494 56.0974 203.494 58.3516C203.494 60.6059 203.674 62.6606 205.212 64.1568C206.231 65.1542 207.489 65.693 208.908 65.693C210.326 65.693 211.585 65.1542 212.604 64.1568C214.142 62.6606 214.322 60.6059 214.322 58.3516C214.322 56.0974 214.142 54.0427 212.604 52.5465C211.585 51.549 210.326 51.0103 208.908 51.0103ZM87.9658 51.2695L83.3113 65.4135H85.1292L86.2877 61.763H91.7814L92.9601 65.4135H94.7982L90.1235 51.2695H87.9658ZM124.205 51.2695V65.4135H125.942V54.0427L131.616 65.4135H133.794V51.2695H132.076V62.7006L126.422 51.2695H124.205ZM168.953 52.7059C169.912 52.7059 170.732 53.0852 171.411 53.7834C172.569 54.9803 172.53 56.8754 172.53 58.3516C172.53 59.8279 172.569 61.7229 171.411 62.9199C170.732 63.6181 169.912 63.997 168.953 63.997C167.994 63.997 167.176 63.6181 166.496 62.9199C165.338 61.7229 165.378 59.8279 165.378 58.3516C165.378 56.8754 165.338 54.9803 166.496 53.7834C167.176 53.0852 167.994 52.7059 168.953 52.7059ZM208.908 52.7059C209.867 52.7059 210.686 53.0852 211.365 53.7834C212.524 54.9803 212.484 56.8754 212.484 58.3516C212.484 59.8279 212.524 61.7229 211.365 62.9199C210.686 63.6181 209.867 63.997 208.908 63.997C207.949 63.997 207.13 63.6181 206.451 62.9199C205.292 61.7229 205.332 59.8279 205.332 58.3516C205.332 56.8754 205.292 54.9803 206.451 53.7834C207.13 53.0852 207.949 52.7059 208.908 52.7059ZM89.0048 53.0849L91.2621 60.0873H86.8073L89.0048 53.0849Z" fill="#010101"/>
</svg>
