<svg width="292" height="19" viewBox="0 0 292 19" fill="none" xmlns="http://www.w3.org/2000/svg">
<path fill-rule="evenodd" clip-rule="evenodd" d="M52.721 14.274H12.454C8.84898 14.274 7.246 12.652 7.246 9.16904V1.39603H1V9.16904C1 14.2 5.35998 16.971 9.52098 16.971H52.721V14.274ZM117.716 1.39603V14.274H80.905C77.3 14.274 75.697 12.652 75.697 9.16904V1.39603H69.449V9.16904C69.449 14.2 73.809 16.971 77.972 16.971H123.964V1.39603H117.716ZM194.671 14.274H152.221C148.616 14.274 147.013 12.652 147.013 9.16904C147.013 5.65903 148.616 4.09301 152.221 4.09301H194.671V1.39603H149.288C145.126 1.39603 140.765 4.15603 140.765 9.16904C140.765 14.2 145.125 16.971 149.288 16.971H194.671V14.274ZM282.478 1.39603C286.638 1.39603 291 4.15603 291 9.16904C291 14.2 286.639 16.971 282.478 16.971H235.868V1.39603H282.478ZM284.753 9.16904C284.753 5.65903 283.15 4.09301 279.545 4.09301H242.115V14.273H279.545C283.15 14.273 284.753 12.652 284.753 9.16904ZM212.224 17.394H218.306V1H212.224V17.394Z" fill="black"/>
</svg>
