<svg width="200" height="75" viewBox="0 0 200 75" fill="none" xmlns="http://www.w3.org/2000/svg">
<path d="M77.0755 52.18L65.0625 40.0831C62.5522 37.5553 62.7661 37.6447 59.2104 37.6447H36.6818C33.1242 37.6447 33.3381 37.5573 30.8297 40.0831L18.8168 52.18C21.5404 57.7129 25.7623 62.3574 30.9952 65.5773L44.8324 51.6435C46.0916 50.3755 46.6486 49.8838 47.3327 49.6724C47.5274 49.6031 47.7316 49.5647 47.9381 49.5586C48.1446 49.5642 48.3489 49.6026 48.5435 49.6724C49.2275 49.8756 49.7845 50.3755 51.0437 51.6435L64.8809 65.5773C70.12 62.3601 74.3479 57.7153 77.0755 52.18Z" fill="black"/>
<path d="M32.5673 36.4559C33.4753 35.4704 33.3482 34.627 34.2361 32.3146C35.3054 29.5278 37.1873 27.1322 39.6341 25.4428C42.081 23.7534 44.9784 22.8492 47.9452 22.8492C50.912 22.8492 53.8093 23.7534 56.2562 25.4428C58.7031 27.1322 60.5849 29.5278 61.6542 32.3146C62.5421 34.6352 62.415 35.4704 63.3211 36.4559C64.2271 37.4414 65.1373 37.6426 68.0189 37.6426H80.4556C80.4894 33.3218 79.6735 29.0369 78.0548 25.0352C76.4362 21.0334 74.0469 17.3939 71.0246 14.3265C68.0024 11.2591 64.4071 8.82447 60.4459 7.16304C56.4848 5.50161 52.2362 4.64624 47.9452 4.64624C43.6542 4.64624 39.4056 5.50161 35.4444 7.16304C31.4833 8.82447 27.888 11.2591 24.8657 14.3265C21.8435 17.3939 19.4542 21.0334 17.8355 25.0352C16.2169 29.0369 15.4009 33.3218 15.4347 37.6426H27.8654C30.7571 37.6426 31.6854 37.415 32.5673 36.4559ZM171.117 19.6833C161.172 19.6833 153.082 27.7323 153.082 37.6264C153.082 47.5204 161.172 55.5694 171.117 55.5694C181.061 55.5694 189.153 47.5204 189.153 37.6264C189.153 27.7323 181.063 19.6833 171.117 19.6833ZM171.157 47.0267C169.311 47.0271 167.506 46.476 165.97 45.4433C164.435 44.4105 163.238 42.9424 162.531 41.2246C161.824 39.5069 161.639 37.6166 161.999 35.793C162.359 33.9693 163.249 32.2941 164.554 30.9794C165.86 29.6646 167.523 28.7692 169.334 28.4066C171.145 28.044 173.023 28.2303 174.729 28.942C176.434 29.6538 177.892 30.8589 178.918 32.4051C179.943 33.9513 180.491 35.769 180.49 37.6284C180.487 40.12 179.503 42.5086 177.753 44.2704C176.004 46.0322 173.632 47.0234 171.157 47.0267ZM139.503 23.4426V54.5717H147.945V20.5632H142.363C141.951 20.5403 141.539 20.5814 141.14 20.6851C140.783 20.7959 140.459 20.9928 140.195 21.2588C139.931 21.5248 139.736 21.8518 139.626 22.2112C139.523 22.6128 139.481 23.0282 139.503 23.4426ZM98.2662 20.5632V54.5717H103.87C104.282 54.5946 104.694 54.5534 105.093 54.4498C105.45 54.3396 105.775 54.1429 106.04 53.8768C106.304 53.6107 106.499 53.2835 106.608 52.9237C106.711 52.5224 106.751 52.1079 106.73 51.6943V33.6801L123.446 52.8749C123.967 53.4723 124.401 53.9356 125.079 54.2465C125.757 54.5575 126.389 54.5778 127.18 54.5778H133.336V20.5632H127.733C127.321 20.5403 126.909 20.5814 126.51 20.6851C126.152 20.7949 125.827 20.9916 125.564 21.2577C125.3 21.5238 125.105 21.8513 124.996 22.2112C124.892 22.6128 124.851 23.0282 124.873 23.4426V41.4609L108.158 22.262C107.636 21.6625 107.202 21.1992 106.524 20.8904C105.846 20.5815 105.214 20.5571 104.423 20.5571L98.2662 20.5632Z" fill="black"/>
</svg>
