<svg width="107" height="139" viewBox="0 0 107 139" fill="none" xmlns="http://www.w3.org/2000/svg">
<g clip-path="url(#clip0_3_129)">
<path d="M91.413 130.533V138.983H94.1111V133.357H103.931V138.983H106.627V130.548L91.413 130.533Z" fill="#E82127"/>
<path d="M93.8105 127.8H104.185C105.626 127.512 106.698 126.235 107 124.999H90.996C91.2951 126.235 92.3825 127.512 93.8105 127.8Z" fill="#E82127"/>
<path d="M83.2415 138.989C84.6018 138.409 85.3337 137.408 85.614 136.235H73.5126L73.5203 125.006L70.8076 125.014V138.989H83.2415Z" fill="#E82127"/>
<path d="M50.6348 127.762H60.2163C61.6607 127.34 62.8737 126.235 63.1693 125.01H47.949V133.269H60.4063V136.167L50.6348 136.174C49.1036 136.603 47.805 137.636 47.1573 139L47.949 138.985H63.0829V130.523H50.6348V127.762Z" fill="#E82127"/>
<path d="M26.9815 127.788H37.3528C38.7957 127.5 39.8681 126.224 40.1688 124.987H24.1655C24.4643 126.224 25.5524 127.5 26.9815 127.788Z" fill="#E82127"/>
<path d="M26.9815 133.312H37.3528C38.7957 133.026 39.8681 131.749 40.1688 130.511H24.1655C24.4643 131.749 25.5524 133.026 26.9815 133.312Z" fill="#E82127"/>
<path d="M26.9815 138.987H37.3528C38.7957 138.699 39.8681 137.422 40.1688 136.186H24.1655C24.4643 137.423 25.5524 138.699 26.9815 138.987Z" fill="#E82127"/>
<path d="M0 125.021C0.311779 126.242 1.36461 127.49 2.80908 127.803H7.17475L7.39745 127.891V138.956H10.1236V127.891L10.3713 127.803H14.7408C16.2014 127.425 17.2315 126.242 17.5379 125.021V124.994H0V125.021Z" fill="#E82127"/>
<path d="M53.5054 97.3754L67.1269 20.4325C80.1106 20.4325 84.206 21.8624 84.7973 27.6991C84.7973 27.6991 93.5071 24.4373 97.9001 17.8128C80.7576 9.83463 63.5334 9.47483 63.5334 9.47483L53.4827 21.7699L53.5054 21.7683L43.4547 9.4729C43.4547 9.4729 26.2301 9.83309 9.08997 17.8113C13.4791 24.4358 22.1924 27.6976 22.1924 27.6976C22.7871 21.8605 26.8775 20.4305 39.7741 20.4213L53.5054 97.3754Z" fill="#E82127"/>
<path d="M53.5 5.92346C67.3573 5.81702 83.2184 8.0765 99.4555 15.1843C101.626 11.2611 102.184 9.52728 102.184 9.52728C84.434 2.47428 67.8119 0.0605458 53.4981 0C39.185 0.0605458 22.5636 2.47466 4.81644 9.52728C4.81644 9.52728 5.60817 11.663 7.54258 15.1843C23.7766 8.0765 39.6404 5.81702 53.4981 5.92346H53.5Z" fill="#E82127"/>
</g>
<defs>
<clipPath id="clip0_3_129">
<rect width="107" height="139" fill="white"/>
</clipPath>
</defs>
</svg>
